<svg>
    <path d="m 142.23476,32.170383 c -0.0424,-0.06862 -0.0413,-0.218071 0.002,-0.332119 0.0438,-0.114048 0.007,-0.342179 -0.0808,-0.506958 -0.12745,-0.238141 -0.24213,-0.283237 -0.55909,-0.219845 -0.36634,0.07327 -0.39876,0.04767 -0.39876,-0.314806 0,-0.319261 0.0824,-0.423291 0.43186,-0.545108 0.23753,-0.0828 0.62944,-0.150546 0.87091,-0.150546 0.24147,0 0.63338,0.06775 0.87091,0.15055 0.34945,0.121817 0.43187,0.225847 0.43187,0.545108 0,0.364877 -0.0308,0.388395 -0.40962,0.312635 -0.34345,-0.06869 -0.42943,-0.02937 -0.53233,0.243413 -0.0695,0.184369 -0.0714,0.423381 -0.004,0.551613 0.0827,0.158054 0.0538,0.251083 -0.096,0.308551 -0.29772,0.114245 -0.43725,0.103 -0.52716,-0.04248 z m -2.52237,-1.158878 c -0.41115,-0.651002 -0.64905,-0.892226 -0.93795,-0.951043 -0.2129,-0.04334 -0.62357,-0.178322 -0.91261,-0.299955 l -0.52553,-0.221151 0.35411,-0.464266 c 0.19476,-0.255346 0.35411,-0.499239 0.35411,-0.541984 0,-0.04275 -0.34592,-0.07772 -0.76872,-0.07772 -1.14691,0 -3.21294,-0.598768 -3.20611,-0.929177 0.001,-0.05463 0.39962,-0.377026 0.88553,-0.716433 0.94035,-0.656828 1.06423,-0.822804 0.61408,-0.822804 -0.15459,0 -0.47857,-0.101713 -0.71996,-0.226026 -1.40216,-0.722133 -1.87878,-1.510706 -1.87878,-3.108489 0,-1.059839 0.0888,-1.236779 0.42028,-0.837378 0.21884,0.263682 1.49892,0.927061 1.5979,0.828081 0.0391,-0.03907 -0.18305,-0.533993 -0.4936,-1.099833 -0.45301,-0.825396 -0.56464,-1.166988 -0.56464,-1.72774 0,-0.722711 0.24252,-1.356741 0.718,-1.877143 l 0.27453,-0.30045 1.08927,1.150742 c 1.46233,1.544851 3.55555,2.902051 4.88634,3.168211 0.60589,0.121177 0.57675,-0.07115 -0.25934,-1.711424 -0.69131,-1.356263 -0.69465,-1.369024 -0.4545,-1.735541 0.28906,-0.441174 2.09427,-1.985263 2.32098,-1.985263 0.20855,0 1.95132,1.47267 2.29828,1.942075 l 0.26981,0.365032 -0.70393,1.417711 c -0.84011,1.692 -0.86104,1.826454 -0.26582,1.70741 1.35124,-0.270248 3.3995,-1.597465 4.88146,-3.163052 l 1.09416,-1.155901 0.27452,0.30045 c 0.47549,0.520402 0.718,1.154432 0.718,1.877143 0,0.560752 -0.11163,0.902344 -0.56463,1.72774 -0.31056,0.56584 -0.53937,1.054075 -0.50847,1.084967 0.0946,0.09463 1.40392,-0.56003 1.60415,-0.802089 0.34749,-0.420076 0.42891,-0.233993 0.42549,0.972399 -0.003,1.142502 -0.0254,1.229851 -0.46244,1.825322 -0.41988,0.572052 -1.34032,1.171655 -2.19136,1.427528 -0.2067,0.06215 -0.079,0.205122 0.64881,0.7264 0.49839,0.356964 0.90733,0.717482 0.90875,0.80115 0.004,0.253571 -1.78066,0.770551 -2.91153,0.843275 -0.58453,0.03759 -1.06279,0.09539 -1.06279,0.128444 0,0.03305 0.15935,0.269017 0.35411,0.524363 l 0.35412,0.464266 -0.52553,0.221151 c -0.28905,0.121633 -0.69268,0.255204 -0.89697,0.296827 -0.26732,0.05446 -0.53133,0.321073 -0.94177,0.951043 -0.31367,0.48145 -0.58671,0.875365 -0.60673,0.875365 -0.02,0 -0.0214,-0.4474 -0.003,-0.994222 0.0296,-0.879665 0.11001,-1.147752 0.69828,-2.326679 0.58207,-1.1665 0.71683,-1.343061 1.08191,-1.417592 0.64179,-0.131022 1.54845,-0.597067 1.64352,-0.844804 0.10081,-0.262731 -0.68269,-1.136274 -1.01915,-1.136274 -0.12035,0 -0.48883,0.275119 -0.81884,0.611375 l -0.60002,0.611377 -0.85173,-0.796757 c -0.88088,-0.824014 -1.84333,-1.385934 -2.37382,-1.385934 -0.49794,0 -1.26565,0.466674 -2.21395,1.345807 l -0.89137,0.826358 -0.70712,-0.691604 -0.70712,-0.691605 -0.59505,0.555056 -0.59505,0.555056 0.33957,0.361456 c 0.19909,0.211925 0.66036,0.450645 1.115,0.577046 l 0.77542,0.215587 0.68983,1.456088 c 0.60192,1.270524 0.68948,1.565316 0.68706,2.313177 -0.002,0.471398 -0.0216,0.857088 -0.0447,0.857088 -0.0231,0 -0.2898,-0.392507 -0.59277,-0.872237 z m 1.10614,-1.898655 c -0.12935,-0.34269 -0.10248,-0.390545 0.3516,-0.62619 0.67577,-0.350693 0.75825,-0.638768 0.14758,-0.515466 -0.25407,0.0513 -0.56009,0.120553 -0.68006,0.1539 -0.1499,0.04167 -0.2964,-0.112977 -0.46844,-0.494485 l -0.25032,-0.555115 0.46319,-0.477894 c 0.50937,-0.525538 1.66995,-1.160876 2.11194,-1.156149 0.45762,0.0049 1.37521,0.481139 1.98031,1.027809 0.63901,0.577306 0.64659,0.605068 0.34094,1.249172 -0.1505,0.317153 -0.29552,0.449941 -0.44569,0.408081 -0.12242,-0.03413 -0.43857,-0.100677 -0.70256,-0.147889 l -0.47997,-0.08584 0.35738,0.315585 c 0.19656,0.173573 0.46432,0.377758 0.59503,0.453745 0.19806,0.115141 0.21171,0.195108 0.0819,0.479969 -0.15266,0.335045 -0.18649,0.341811 -1.70926,0.341811 h -1.55353 z m -3.72229,-10.61899 c -0.48442,-0.550326 -0.56019,-0.722905 -0.56019,-1.275848 0,-0.654824 0.49853,-1.875739 0.90298,-2.211397 0.16759,-0.139095 0.2777,-0.09871 0.61688,0.226247 0.46978,0.450072 1.35995,2.140517 1.35995,2.582547 0,0.590839 -0.82046,1.314862 -1.49001,1.314862 -0.14863,0 -0.52057,-0.285325 -0.82961,-0.636411 z m 9.16414,0.323617 c -0.66627,-0.448996 -0.75761,-0.834916 -0.41286,-1.744218 0.32821,-0.865667 1.23301,-2.125578 1.52648,-2.125578 0.26948,0 1.05146,1.338377 1.16108,1.987225 0.10334,0.61166 -0.10089,1.082743 -0.75851,1.749679 -0.51896,0.526303 -0.88483,0.55837 -1.51619,0.132892 z"/>
</svg>
