<svg>
    <path
       d="m 4.3630777,18.873577 c -0.153287,-0.322332 -0.354164,-0.689458 -0.446394,-0.815834 -0.135091,-0.185103 -0.104443,-0.497699 0.157648,-1.60793 l 0.325339,-1.378155 -0.688813,-1.536349 c -0.682066,-1.521304 -0.687001,-1.542365 -0.503898,-2.150769 0.249845,-0.830173 0.231783,-0.987663 -0.16501,-1.4387695 L 2.7006937,9.557804 2.0878947,9.9454885 c -0.706911,0.4472255 -0.728742,0.1916415 0.232283,2.7195305 0.994171,2.61508 1.029156,2.815822 0.61251,3.514508 l -0.342506,0.574359 0.263711,0.669042 c 0.314627,0.798215 0.314423,0.796022 0.07429,0.796022 -0.104183,0 -0.345785,-0.204999 -0.536892,-0.455553 l -0.347468,-0.455554 0.259871,-0.93717 c 0.144076,-0.519583 0.221923,-1.095682 0.174707,-1.292907 -0.04684,-0.195655 -0.508548,-1.309538 -1.026021,-2.475297 C 0.93490672,11.436712 0.54344172,10.382331 0.58245772,10.259403 0.65176772,10.041013 1.4224267,9.324085 3.2886057,7.741917 3.7974857,7.310482 4.2788937,6.835942 4.3583997,6.687383 4.4840447,6.452612 4.4398297,6.390898 4.0203877,6.215646 3.2133587,5.878448 2.7474467,5.947885 2.4911247,6.443558 2.3689537,6.679806 2.2951857,7.051522 2.3271917,7.269591 2.3771517,7.610007 2.2820117,7.754397 1.6544227,8.29056 L 0.92346172,8.91504 V 8.005789 c 0,-0.743905 -0.06234,-1.001 -0.342835,-1.413779 -0.408181,-0.600691 -0.424632,-0.777709 -0.09441,-1.015904 0.203129,-0.146518 0.247076,-0.366737 0.241015,-1.207699 -0.01264,-1.753866 0.82909098,-3.10092 2.38953998,-3.82407405 0.648905,-0.300718 0.942502,-0.349349 2.088079,-0.345866 1.244354,0.0038 1.394838,0.03549 2.2627131,0.476784 1.061704,0.53984505 1.615693,1.22882605 2.054419,2.55502205 0.206879,0.625358 0.238068,0.938148 0.145963,1.46382 -0.103856,0.592726 -0.08535,0.690782 0.163183,0.864864 0.3634532,0.254573 0.3533822,0.421005 -0.06252,1.033053 -0.280491,0.412779 -0.342835,0.669874 -0.342835,1.413779 V 8.91504 L 8.6948128,8.29056 C 8.0672268,7.754397 7.9720818,7.610007 8.0220438,7.269591 8.1123738,6.654109 7.7180598,6.014016 7.2485688,6.014016 c -0.6323801,0 -1.2511481,0.272863 -1.2511481,0.551728 0,0.151482 0.745921,0.896131 1.8855941,1.882375 1.037077,0.89746 1.903794,1.726052 1.926039,1.841316 0.02225,0.115264 -0.323281,1.005477 -0.767839,1.978249 -1.271991,2.783356 -1.313938,2.955226 -0.998709,4.092039 l 0.262907,0.94812 -0.347468,0.455554 c -0.191107,0.250554 -0.432709,0.455553 -0.536893,0.455553 -0.236834,0 -0.235953,-0.03459 0.01628,-0.638255 0.274194,-0.65624 0.258169,-0.994534 -0.07046,-1.487324 -0.216018,-0.323928 -0.256402,-0.542612 -0.189933,-1.028505 0.04643,-0.339407 0.162334,-0.74163 0.257562,-0.893829 0.188041,-0.300534 1.477024,-3.791079 1.413174,-3.826852 -0.02145,-0.01201 -0.288468,-0.181392 -0.593368,-0.3763825 L 7.6999428,9.613275 7.3286508,9.9326455 c -0.4209371,0.3620735 -0.4455851,0.5579805 -0.180201,1.4321985 0.187121,0.616405 0.184476,0.627709 -0.4973861,2.125578 -0.761709,1.673268 -0.739813,1.304741 -0.218532,3.678089 0.15412,0.701693 0.145521,0.75239 -0.205701,1.212867 -0.2016,0.26431 -0.366545,0.57909 -0.366545,0.699511 0,0.305373 -0.259023,0.434428 -0.357397,0.178068 -0.04466,-0.11637 0.04835,-0.479172 0.206669,-0.806225 0.358474,-0.740509 0.359763,-0.699489 -0.06137,-1.954028 -0.384774,-1.146221 -0.388678,-1.108798 0.29582,-2.835762 0.458701,-1.157289 0.469165,-1.224755 0.321467,-2.072893 -0.206982,-1.188578 -0.551087,-1.7362785 -1.090858,-1.7362785 -0.538109,0 -0.883784,0.5471655 -1.088558,1.7230705 -0.143318,0.822985 -0.130196,0.913731 0.279907,1.935759 0.71967,1.793509 0.7236,1.828724 0.333749,2.990069 -0.418436,1.246499 -0.418406,1.245731 -0.07364,1.921982 0.302969,0.594257 0.339496,0.834873 0.144985,0.955087 -0.07111,0.04395 -0.2547,-0.183827 -0.407987,-0.506161 z M 5.8728637,8.672978 c 0.267085,-0.321818 -0.26143,-1.219054 -0.718082,-1.219054 -0.45022,0 -0.946973,0.895458 -0.677126,1.220603 0.240931,0.290305 1.153833,0.28929 1.395208,-0.0015 z"
    />
</svg>
