<svg>
  <path
     d="m 3.2823393,18.48584 c -0.9609,-0.489976 -1.33596,-1.538177 -0.89794,-2.509528 0.36425,-0.807776 0.95327,-1.117207 2.03426,-1.06866 0.86992,0.03907 0.8863,0.033 1.6325,-0.604501 l 0.75377,-0.643963 0.0986,-1.315295 0.0986,-1.315297 1.80355,-0.866875 C 9.7976397,9.6849386 12.19828,8.5202246 14.14045,7.5734666 c 1.94216,-0.946758 3.5312,-1.692823 3.5312,-1.657921 0,0.06696 -0.53236,0.744965 -4.70867,5.9969574 l -2.59692,3.265821 -0.4955203,-0.07177 c -0.27252,-0.03948 -0.8783304,-0.110913 -1.3462204,-0.158747 l -0.85072,-0.08697 -0.78552,0.639886 c -0.74776,0.609122 -0.78598,0.670719 -0.79506,1.281216 -0.0217,1.461039 -1.51348,2.365373 -2.8107,1.703907 z m 1.49066,-0.647009 c 0.46206,-0.238937 0.71588,-0.864309 0.56909,-1.402119 -0.10211,-0.374076 -0.10783,-0.376178 -0.20537,-0.0755 -0.1702,0.524634 -0.7515,1.104209 -1.28362,1.279825 -0.43929,0.144982 -0.47098,0.181812 -0.2355,0.273784 0.42017,0.164101 0.7306,0.143685 1.1554,-0.07599 z m -1.57515,-1.40979 c 0.056,-0.185489 0.0348,-0.308552 -0.0532,-0.308552 -0.0805,0 -0.14722,0.04628 -0.14826,0.102851 -0.001,0.05657 -0.0403,0.257126 -0.0872,0.445685 -0.10667,0.428509 0.15152,0.213824 0.28863,-0.239984 z m 1.09547,0.07234 c 0.32664,-0.466354 0.27924,-0.929519 -0.0951,-0.928988 -0.27364,4.11e-4 -0.30896,0.07023 -0.31218,0.617103 -0.004,0.687997 0.0922,0.761702 0.40726,0.311885 z m 4.73568,-3.444377 c 1.6610907,-1.420936 3.0201707,-2.60974 3.0201707,-2.641787 0,-0.03205 -1.48069,1.062936 -3.2904207,2.433296 -2.66083,2.014832 -3.26039,2.527741 -3.1335,2.680638 0.0863,0.10399 0.20791,0.17159 0.27025,0.150222 0.0623,-0.02137 1.47239,-1.201434 3.1335,-2.622369 z m -7.92091,4.847851 C 0.65961927,17.701309 0.45756926,17.499246 0.25401926,17.050778 c -0.33948,-0.747948 -0.3389,-1.085618 0.003,-1.755728 0.22126,-0.433685 0.84320004,-0.957301 1.13708004,-0.957301 0.0302,0 -0.12098,0.369409 -0.33602,0.820908 -0.21505003,0.451499 -0.39100003,0.920233 -0.39100003,1.041631 0,0.394144 0.44123003,0.980704 0.90358003,1.201179 0.24839,0.11845 0.51913,0.341515 0.60165,0.4957 0.13088,0.244558 0.11003,0.279952 -0.16334,0.277325 -0.17237,-0.0017 -0.57773,-0.122993 -0.90084,-0.269637 z m 0.46305,-1.134618 c -0.38792,-0.582754 -0.25154,-1.75982 0.26654,-2.300579 0.41693,-0.435176 1.28091,-0.74781 1.69947,-0.614963 0.19104,0.06064 0.40432,-0.126184 0.89207,-0.78142 0.62556,-0.840398 0.6384,-0.877598 0.53341,-1.546778 -0.0592,-0.377119 -0.10879,-1.005389 -0.11029,-1.396155 l -0.003,-0.7104844 4.45072,-3.706807 C 11.74796,3.6743066 13.76988,2.0253456 13.79322,2.0486936 c 0.0233,0.02335 -0.58044,1.394025 -1.34175,3.04595 -0.7613,1.651925 -1.44814,3.176294 -1.52631,3.387487 -0.1138,0.307514 -0.46921,0.547959 -1.7845807,1.207333 -0.90335,0.4528404 -1.5947,0.7428744 -1.53631,0.6445194 0.0584,-0.09836 0.47525,-0.6725104 0.92635,-1.2759004 1.8249707,-2.441055 1.2213804,-1.799973 -1.80763,1.9198774 -1.79229,2.201063 -2.41963,3.063307 -2.31977,3.188368 0.0753,0.09428 0.17953,0.171418 0.23167,0.171418 0.0521,0 0.51746,-0.58648 1.03405,-1.303289 0.5166,-0.716809 0.95445,-1.28763 0.97303,-1.26849 0.10518,0.108399 -0.13967,1.338846 -0.26771,1.345225 -0.0845,0.0042 -0.41088,0.333886 -0.72536,0.732613 l -0.57178,0.724958 -0.80816,-0.01098 c -0.55166,-0.0075 -0.92357,0.06465 -1.17185,0.227327 -0.20004,0.131069 -0.48811,0.238306 -0.64018,0.238306 -0.29924,0 -0.35415,0.142736 -0.52752,1.371341 l -0.10644,0.754238 -0.25212,-0.378758 z m 0.77677,-3.735452 0.2779,-0.754422 -0.56941,-1.243013 -0.56942,-1.2430114 1.48203,-2.288005 c 0.81513,-1.258403 2.24792,-3.473407 3.18398,-4.922231 0.93607,-1.448824 1.72473,-2.61144995 1.75256,-2.58361295359 C 7.9333493,0.02832965 7.7528693,1.6609856 7.5043893,3.6286226 l -0.45174,3.577521 -1.13361,0.960253 c -0.62348,0.528139 -1.16152,0.960253 -1.19566,0.960253 -0.0341,0 0.11883,-0.535149 0.33992,-1.189221 0.22109,-0.654071 0.38683,-1.204372 0.36831,-1.222892 -0.0185,-0.01852 -0.64332,1.488568 -1.38844,3.3490834 -1.21534,3.034631 -1.56364,3.725589 -1.87806,3.725589 -0.0523,0 0.03,-0.33949 0.1828,-0.754424 z m 0.92468,0.377507 c 0,-0.232664 1.14594,-3.5204144 1.18307,-3.394271 0.0222,0.07542 0.0971,0.569107 0.1664,1.097073 0.13345,1.016585 0.0489,1.369313 -0.3592,1.498846 -0.13431,0.04263 -0.31415,0.262797 -0.39964,0.489257 -0.13485,0.357287 -0.59063,0.595807 -0.59063,0.309095 z"/>
</svg>
