<svg>
    <path
       d="m 5.9217728,17.322115 c -0.13432,-0.500636 -0.19903,-1.376717 -0.19249,-2.605548 0.01,-1.823915 0.16018,-2.592579 0.814,-4.157969 0.0939,-0.224764 0.0512,-0.240149 -0.42837,-0.154354 -1.69244,0.302789 -3.23869,1.087826 -4.54623,2.308118 -0.96786002,0.903294 -0.95705002,0.737545 0.0443,-0.679568 1.06243,-1.503552 2.73093,-2.8423755 4.36196,-3.5000925 l 0.54193,-0.218532 -0.60444,-0.414088 c -1.41707,-0.970834 -2.67144,-1.392748 -4.56424,-1.535217 l -1.25127002,-0.09418 0.8228,-0.199635 C 1.4368028,5.9455925 2.4049328,5.8745105 3.5252728,5.8797415 c 1.6229,0.0076 1.89341,0.04633 3.01695,0.432254 0.67882,0.233161 1.25267,0.406374 1.27523,0.384917 0.0226,-0.02146 -0.0572,-0.462322 -0.17714,-0.979696 -0.3206,-1.382415 -1.09987,-2.825115 -2.12659,-3.937116 l -0.89137,-0.96540249 0.74222,0.40277949 c 0.40822,0.221531 1.31002,0.958176 2.004,1.636989 1.06764,1.044316 1.35853,1.429374 1.89064,2.502698 l 0.62884,1.268489 0.3471702,-0.455152 c 0.8743,-1.146272 1.56943,-3.381272 1.60023,-5.145125 l 0.0136,-0.77645749 0.21542,0.617104 c 0.15583,0.44637949 0.21743,1.16721349 0.22268,2.60554749 0.007,1.881887 -0.0157,2.054583 -0.42125,3.222651 -0.23568,0.678814 -0.41095,1.252665 -0.38949,1.275225 0.0215,0.02256 0.46282,-0.05708 0.98078,-0.176973 1.41202,-0.326833 2.79378,-1.071404 3.91539,-2.109826 0.59533,-0.551173 0.90984,-0.773506 0.79992,-0.565468 -1.01459,1.920333 -3.11421,3.888799 -4.90488,4.598486 -0.32055,0.127044 -0.58282,0.2852235 -0.58282,0.3515125 0,0.154317 0.96601,0.764805 1.85213,1.170482 0.87177,0.399106 2.44452,0.73228 3.53935,0.749782 l 0.84812,0.01356 -0.6171,0.20214 c -0.33941,0.111176 -1.26789,0.236638 -2.06329,0.278803 -1.58429,0.08398 -3.1664,-0.153513 -4.32172,-0.648742 -0.34737,-0.148896 -0.66011,-0.27072 -0.69498,-0.27072 -0.11813,0 0.12176,1.023799 0.46591,1.988444 0.42656,1.195567 1.08379,2.249711 1.99938,3.206815 l 0.70638,0.738402 -0.74433,-0.395566 C 11.079223,16.263326 9.0845328,14.006287 8.4160728,12.304506 l -0.24665,-0.62791 -0.37886,0.496722 c -0.85905,1.126263 -1.43069,2.862333 -1.581,4.801412 l -0.0854,1.101623 -0.20234,-0.754238 z m 3.21587,-5.451081 c -0.18491,-0.51814 -0.26271,-1.542758 -0.11714,-1.542758 0.0431,0 0.33626,0.148886 0.65138,0.33086 0.5977402,0.345168 1.9210902,0.7663 1.4088902,0.448352 -0.41444,-0.257266 -1.1787602,-0.934983 -1.1787602,-1.045202 0,-0.05524 0.3603302,-0.2006295 0.8007502,-0.3230745 0.44041,-0.122446 0.94952,-0.353714 1.13136,-0.513931 0.28196,-0.248448 0.29026,-0.276893 0.0563,-0.193355 -0.35523,0.126859 -1.71417,0.254985 -1.71417,0.161618 0,-0.03939 0.18513,-0.423563 0.4114,-0.853712 0.49219,-0.935675 0.58954,-1.665245 0.11927,-0.893796 -0.28476,0.467116 -0.63642,0.812158 -0.8366002,0.820868 -0.0551,0.0024 -0.13656,-0.165342 -0.18094,-0.372758 -0.16101,-0.752483 -0.48884,-1.514518 -0.75529,-1.75566 -0.26997,-0.244306 -0.27053,-0.242064 -0.0636,0.25307 0.11481,0.274758 0.20873,0.774736 0.20873,1.111063 v 0.611503 l -0.78045,-0.469965 c -0.42925,-0.25848 -0.88703,-0.469965 -1.01729,-0.469965 -0.13027,0 -0.34987,-0.03478 -0.48803,-0.07729 -0.13817,-0.04251 -0.0661,0.02653 0.1602,0.153427 0.52629,0.295159 1.16564,0.890816 1.16564,1.085995 0,0.08298 -0.19569,0.165787 -0.43488,0.184012 -0.53118,0.04047 -1.48999,0.452124 -1.72972,0.74262 -0.1584,0.191947 -0.12386,0.194799 0.34284,0.0283 0.28544,-0.101831 0.78213,-0.187857 1.10375,-0.191167 l 0.58477,-0.006 -0.35421,0.535227 c -0.1948,0.294375 -0.43965,0.8343395 -0.54412,1.1999225 -0.12948,0.453175 -0.13739,0.581593 -0.0249,0.403548 0.26738,-0.423048 0.93935,-1.178759 1.04814,-1.178759 0.0553,0 0.19996,0.357899 0.32158,0.795332 0.18153,0.652935 0.66797,1.535947 0.84613,1.535947 0.0234,0 -0.0401,-0.231414 -0.14105,-0.514253 z"
    />
</svg>
