<svg>
    <path
       d="m 8.1771074,19.126196 c -3.78625,-0.600978 -6.99532,-3.534144 -7.96127001,-7.276803 -0.34136,-1.322636 -0.30811,-3.4865115 0.0749,-4.8715635 C 1.0296574,4.3054606 2.9143574,2.0417426 5.4203474,0.81666265 c 1.4303,-0.699217 2.52665,-0.945247 4.21217,-0.945247 1.7375896,0 2.7866696,0.246372 4.3844496,1.029671 0.93722,0.45946695 1.40406,0.81055195 2.41519,1.81632795 1.02828,1.022839 1.3552,1.456123 1.82018,2.412407 0.78194,1.6081549 1.02688,2.6549129 1.02688,4.3882909 0,1.7197425 -0.24637,2.7864005 -0.99792,4.3203715 -1.19281,2.434632 -3.61638,4.406644 -6.22858,5.068076 -1.00817,0.255278 -2.9556796,0.365646 -3.8755696,0.219636 z m 4.1294896,-1.295754 c 2.65272,-0.84377 4.76614,-2.945236 5.64067,-5.608798 0.69476,-2.116003 0.47444,-4.8520925 -0.54344,-6.7489874 C 15.561097,2.0385866 11.715017,0.18783765 7.9808474,0.93828165 3.6751474,1.8035826 0.59599739,5.7364316 0.89682744,9.9863305 1.0916674,12.738825 2.4176474,15.126936 4.6033974,16.661926 c 2.25756,1.585422 5.05728,2.010118 7.7031996,1.168516 z M 8.4513774,17.205643 c -1.59496,-0.251627 -3.14405,-1.041955 -4.29164,-2.189542 -3.07757,-3.07757 -3.01872,-8.1013205 0.13015,-11.1111764 1.43649,-1.373066 3.15297,-2.066884 5.20546,-2.104097 2.2178096,-0.04021 4.1962596,0.771322 5.7305396,2.35059 3.29601,3.3926689 2.72335,9.0688424 -1.1843,11.7388274 -1.6089,1.099316 -3.75661,1.604679 -5.5902096,1.315398 z M 12.610687,15.61065 c 2.6357,-1.267721 4.23741,-4.280106 3.76807,-7.0867595 -0.76576,-4.5793439 -5.65972,-7.1424409 -9.7400596,-5.1011309 -1.09336,0.546984 -1.84785,1.169135 -2.46732,2.034545 l -0.4557,0.63663 0.86711,-0.656203 c 1.2861,-0.973286 2.1456,-1.303354 3.58674,-1.377388 2.7356396,-0.140532 4.9465596,1.174236 6.1639896,3.6655319 0.42118,0.861883 0.44026,0.972361 0.44086,2.5531215 6.9e-4,1.627886 -0.007,1.66733 -0.50421,2.674115 -0.55921,1.131905 -1.42617,2.120313 -2.40332,2.740004 -0.87556,0.555268 -0.49415,0.512983 0.74384,-0.08247 z M 7.0817974,15.15827 c -1.355,-0.997556 -1.99149,-2.193695 -1.99711,-3.753116 -0.006,-1.5417225 0.57138,-2.7450115 1.74991,-3.6497405 2.15362,-1.6532899 5.0201496,-1.164984 6.7358096,1.147429 l 0.30388,0.409569 -0.18755,-0.561872 c -0.32409,-0.970934 -0.71897,-1.611025 -1.40335,-2.2747899 -3.0836096,-2.990764 -8.0955696,-1.382258 -8.9760796,2.8807259 -0.32671,1.5818225 0.24114,3.4316645 1.43167,4.6637785 0.59041,0.611027 0.99428,0.877342 1.94512,1.282628 0.83045,0.35397 0.9941,0.294464 0.3977,-0.144612 z m 3.9502596,-0.416514 c 0.67099,-0.261054 1.4291,-0.956976 1.81785,-1.668731 0.34039,-0.623214 0.4064,-0.899753 0.40759,-1.707374 10e-4,-0.823344 -0.06,-1.073018 -0.4202,-1.7141775 -1.17692,-2.094879 -3.8131696,-2.574936 -5.6456896,-1.028073 -0.49554,0.418296 -1.12461,1.5379975 -1.12461,2.0017285 0,0.272605 0.0268,0.264676 0.37883,-0.11221 0.74365,-0.7960785 1.73843,-1.1064005 2.76064,-0.8611775 1.2916896,0.309871 2.1996396,1.4562145 2.2057496,2.7848755 0.004,0.855291 -0.28889,1.530343 -0.92357,2.129202 -0.4947098,0.46678 -0.4998698,0.480976 -0.14226,0.391342 0.20409,-0.05115 0.51264,-0.148087 0.68567,-0.215405 z M 9.5915374,14.049089 C 10.430697,13.537427 10.737647,12.301142 10.236267,11.452376 9.9539772,10.974492 9.1233274,10.478052 8.6060274,10.478052 c -0.5336,0 -1.26609,0.383236 -1.58291,0.82817 -0.60363,0.847713 -0.46149,1.872232 0.3598,2.593328 0.38727,0.340034 0.59729,0.41816 1.12298,0.417744 0.39918,-2.75e-4 0.81461,-0.102947 1.08564,-0.268205 z"
    />
</svg>
